<?xml version="1.0" encoding="iso-8859-1"?>
<!-- Uploaded to: SVG Repo, www.svgrepo.com, Generator: SVG Repo Mixer Tools -->
<svg version="1.1" id="Layer_1" xmlns="http://www.w3.org/2000/svg" xmlns:xlink="http://www.w3.org/1999/xlink" 
	 viewBox="0 0 512 512" xml:space="preserve">
<g>
	<polygon style="fill:#DB2B42;" points="431.128,512 382.808,463.68 448.792,397.696 498.176,447.08 	"/>
	
		<rect x="341.623" y="351.97" transform="matrix(-0.7071 0.7071 -0.7071 -0.7071 881.4906 386.1909)" style="fill:#DB2B42;" width="38.28" height="47.376"/>
</g>
<g>
	
		<rect x="349.996" y="384.501" transform="matrix(-0.7071 0.7071 -0.7071 -0.7071 968.1531 422.1238)" style="fill:#2D2D2D;" width="93.311" height="54.143"/>
	<circle style="fill:#2D2D2D;" cx="219.6" cy="205.776" r="205.776"/>
</g>
<circle style="fill:#FFFFFF;" cx="219.6" cy="205.776" r="184.24"/>
<path style="fill:#8AD5DD;" d="M126.496,284.808v-5.24c7.256-0.816,12.704-3.544,16.336-8.192
	c3.624-4.648,9.848-17.344,18.656-38.112l58.8-138.52h5.624l70.328,160.024c4.688,10.6,8.432,17.152,11.232,19.664
	s7.512,4.224,14.128,5.136v5.24h-71.776v-5.24c8.248-0.728,13.568-1.624,15.952-2.672c2.384-1.056,3.584-3.632,3.584-7.752
	c0-1.368-0.456-3.792-1.376-7.272s-2.2-7.136-3.864-10.976l-11.296-27.152h-74.392c-7.328,18.464-11.712,29.736-13.128,33.808
	c-1.424,4.072-2.136,7.296-2.136,9.672c0,4.752,1.92,8.048,5.784,9.88c2.384,1.096,6.872,1.92,13.48,2.464v5.24L126.496,284.808
	L126.496,284.808z M248.056,212.312l-32.352-77.736l-32.496,77.736L248.056,212.312L248.056,212.312z"/>
</svg>